<?xml version="1.0" standalone="no"?>
<!DOCTYPE svg PUBLIC "-//W3C//DTD SVG 20010904//EN"
 "http://www.w3.org/TR/2001/REC-SVG-20010904/DTD/svg10.dtd">
<svg version="1.0" xmlns="http://www.w3.org/2000/svg"
 width="3508.000000pt" height="2482.000000pt" viewBox="0 0 3508.000000 2482.000000"
 preserveAspectRatio="xMidYMid meet">

<g transform="translate(0.000000,2482.000000) scale(0.100000,-0.100000)"
fill="#000000" stroke="none">
<path d="M10948 18690 c-238 -60 -447 -230 -561 -457 -69 -136 -101 -342 -78
-501 28 -192 103 -338 248 -485 177 -179 372 -255 632 -244 141 5 211 21 320
73 239 112 415 330 478 589 24 102 22 295 -6 400 -78 293 -296 522 -586 615
-102 33 -337 38 -447 10z"/>
<path d="M24035 16333 c-650 -30 -1195 -198 -1681 -519 -239 -157 -495 -383
-680 -600 -140 -163 -326 -429 -401 -571 -229 -437 -343 -756 -407 -1143 -62
-372 -62 -863 -1 -1223 88 -512 310 -1037 621 -1469 493 -684 1122 -1097 1924
-1262 285 -58 424 -70 820 -71 399 0 504 9 790 65 413 82 792 238 1142 469
353 233 679 561 930 932 145 216 379 642 362 659 -13 13 -1005 532 -1008 528
-2 -1 -47 -75 -101 -163 -215 -350 -349 -530 -535 -716 -225 -226 -448 -364
-790 -492 -374 -140 -854 -187 -1237 -121 -510 87 -945 353 -1280 784 -239
307 -410 740 -448 1138 l-8 72 2776 0 c1527 0 2778 3 2780 8 9 16 -12 546 -27
672 -83 697 -317 1278 -722 1785 -113 143 -420 448 -554 551 -552 426 -1151
642 -1898 684 -169 9 -231 10 -367 3z m560 -1192 c547 -98 1050 -388 1340
-772 117 -155 215 -341 295 -561 l29 -78 -2030 0 -2030 0 6 23 c36 120 177
397 280 552 180 269 419 480 720 637 198 103 448 182 650 207 50 6 101 13 115
15 14 3 133 3 265 2 193 -3 264 -8 360 -25z"/>
<path d="M10560 12905 l0 -3285 595 0 595 0 0 3285 0 3285 -595 0 -595 0 0
-3285z"/>
<path d="M17004 15080 c-227 -259 -418 -551 -551 -845 l-54 -119 40 -86 c22
-47 58 -132 80 -190 l40 -105 -144 -3 -145 -3 -14 -52 c-22 -74 -52 -232 -72
-372 -13 -90 -18 -189 -18 -395 l-1 -275 590 -3 591 -2 -4 189 c-5 200 5 318
39 486 44 220 158 500 282 696 l54 87 -37 98 c-131 351 -363 748 -575 982 -9
10 -30 -7 -101 -88z"/>
<path d="M16670 12002 c-46 -75 -121 -194 -167 -263 -45 -70 -83 -132 -83
-139 0 -20 114 -251 175 -357 32 -54 88 -143 125 -198 144 -215 374 -486 399
-471 18 11 155 185 239 303 137 192 423 697 408 722 -3 5 -219 120 -478 256
-260 136 -487 256 -504 266 l-31 19 -83 -138z"/>
<path d="M17182 8774 c54 -76 87 -75 43 0 -20 35 -33 46 -52 46 l-24 0 33 -46z"/>
<path d="M20262 8788 c-28 -31 -19 -41 18 -20 26 15 31 15 65 -1 47 -22 88
-22 109 2 24 27 11 48 -15 25 -18 -16 -24 -16 -52 -5 -61 26 -100 25 -125 -1z"/>
<path d="M11302 8669 c-52 -26 -82 -78 -82 -142 0 -68 30 -104 134 -157 106
-53 129 -82 123 -149 -3 -29 -13 -52 -31 -70 -23 -22 -35 -26 -89 -26 -34 0
-82 4 -105 9 -40 7 -44 6 -40 -10 7 -40 166 -58 228 -26 19 9 45 33 58 52 20
30 23 45 20 97 -5 80 -32 110 -145 165 -109 51 -134 96 -98 172 25 53 65 70
151 62 68 -5 74 -4 74 13 0 14 -10 20 -46 25 -77 10 -107 7 -152 -15z"/>
<path d="M13481 8680 c-18 -4 -45 -17 -60 -27 -65 -47 -102 -204 -82 -349 22
-154 79 -218 196 -218 117 0 174 64 196 218 13 96 -1 219 -32 284 -37 74 -130
114 -218 92z m134 -54 c13 -9 35 -35 47 -59 21 -38 23 -56 23 -182 0 -122 -3
-145 -21 -179 -31 -59 -64 -80 -129 -80 -107 0 -147 59 -153 228 -7 171 19
249 92 282 38 17 107 12 141 -10z"/>
<path d="M14043 8683 l-43 -4 0 -300 0 -299 71 0 c95 0 150 16 198 56 60 52
76 104 76 255 0 120 -1 128 -30 184 -24 47 -39 63 -75 82 -47 23 -124 34 -197
26z m138 -43 c73 -20 116 -95 126 -218 6 -88 -14 -185 -49 -234 -29 -42 -91
-68 -160 -68 l-58 0 0 259 c0 198 3 261 13 264 21 9 91 7 128 -3z"/>
<path d="M15453 8683 l-33 -4 0 -295 c0 -287 0 -294 20 -294 19 0 20 7 20 100
l0 100 64 0 c129 0 192 47 211 157 15 92 -18 178 -82 215 -32 20 -137 30 -200
21z m162 -47 c57 -24 77 -67 73 -158 -3 -73 -5 -80 -36 -110 -30 -31 -38 -33
-112 -36 l-80 -4 0 155 c0 115 3 157 13 160 26 11 109 6 142 -7z"/>
<path d="M15937 8676 c-47 -17 -74 -41 -97 -86 -53 -104 -51 -318 3 -415 60
-106 211 -124 291 -34 53 57 69 126 64 268 -6 169 -46 246 -144 270 -54 14
-70 13 -117 -3z m133 -45 c23 -12 44 -36 60 -67 23 -44 25 -60 25 -174 0 -197
-38 -263 -151 -265 -91 0 -136 51 -154 176 -11 74 -7 161 11 230 25 98 124
146 209 100z"/>
<path d="M16591 8678 c-55 -15 -79 -37 -108 -96 -26 -54 -28 -65 -28 -192 0
-106 4 -145 18 -182 33 -86 119 -136 207 -122 62 10 101 42 135 109 29 58 30
65 30 190 0 115 -3 136 -24 183 -44 99 -129 140 -230 110z m138 -55 c41 -31
60 -73 72 -160 9 -61 9 -100 0 -159 -19 -129 -63 -179 -155 -179 -113 2 -151
68 -151 265 0 113 2 130 25 175 31 62 75 88 139 82 24 -3 55 -14 70 -24z"/>
<path d="M18100 8681 l-45 -6 0 -295 0 -295 65 -3 c138 -7 230 40 267 136 26
67 26 267 0 334 -25 64 -81 113 -146 127 -55 12 -68 12 -141 2z m142 -41 c43
-12 91 -63 109 -117 17 -50 17 -217 0 -268 -31 -92 -91 -134 -193 -135 l-58 0
0 259 c0 198 3 261 13 264 21 9 91 7 129 -3z"/>
<path d="M19175 8680 c-143 -21 -190 -103 -183 -319 4 -137 26 -196 87 -236
72 -48 231 -57 231 -13 0 17 -5 19 -45 13 -114 -18 -203 42 -225 152 -18 87
-8 221 21 280 34 67 73 87 171 88 68 0 78 2 78 18 0 12 -8 17 -29 17 -16 0
-35 2 -43 4 -7 2 -36 0 -63 -4z"/>
<path d="M20005 8683 c-78 -9 -99 -17 -135 -49 -64 -58 -93 -193 -71 -333 19
-123 61 -180 149 -204 48 -13 62 -33 62 -91 0 -41 -21 -60 -60 -54 -24 4 -30
1 -30 -14 0 -15 8 -18 44 -18 37 0 48 5 66 28 22 27 23 69 5 114 -5 13 2 17
34 23 29 5 41 12 41 23 0 14 -12 17 -73 17 -137 1 -187 59 -195 227 -10 216
40 291 195 292 63 1 73 4 73 19 0 11 -8 17 -24 17 -13 0 -30 2 -38 3 -7 2 -26
2 -43 0z"/>
<path d="M20736 8675 c-98 -35 -131 -110 -131 -295 0 -119 1 -128 30 -185 34
-67 73 -99 135 -109 88 -14 174 36 207 122 26 66 26 287 0 353 -22 57 -70 104
-122 118 -51 14 -71 13 -119 -4z m129 -41 c69 -32 101 -132 92 -287 -7 -130
-32 -183 -99 -211 -84 -34 -160 1 -195 92 -24 64 -24 259 1 317 41 95 117 129
201 89z"/>
<path d="M21425 8680 c-143 -21 -191 -105 -183 -319 4 -105 7 -121 33 -169 16
-29 43 -61 60 -72 70 -43 225 -49 225 -9 0 16 -6 18 -44 13 -68 -10 -140 12
-175 51 -44 51 -56 97 -56 220 0 97 3 116 25 160 35 70 73 89 172 90 68 0 78
2 78 18 0 12 -8 17 -29 17 -16 0 -35 2 -43 4 -7 2 -36 0 -63 -4z"/>
<path d="M23298 8683 l-28 -4 0 -295 c0 -287 0 -294 20 -294 19 0 20 7 20 113
l0 112 65 0 64 0 53 -112 c44 -94 57 -113 76 -113 12 0 22 2 22 5 0 3 -25 56
-56 117 -32 63 -52 114 -46 116 24 8 63 46 79 75 11 20 17 56 17 97 0 127 -53
179 -188 185 -39 2 -83 1 -98 -2z m165 -47 c59 -25 72 -49 72 -136 0 -64 -4
-82 -20 -100 -30 -34 -77 -50 -145 -50 l-60 0 0 144 c0 106 3 146 13 149 25
11 109 7 140 -7z"/>
<path d="M25260 8668 c-53 -28 -80 -75 -80 -139 0 -71 29 -106 134 -159 120
-60 151 -113 111 -190 -30 -58 -106 -72 -227 -44 -24 5 -28 3 -28 -14 0 -17
10 -22 69 -32 155 -28 241 26 241 150 0 79 -34 116 -156 175 -99 48 -127 102
-89 175 25 48 67 64 152 56 67 -5 73 -4 73 13 0 14 -10 20 -46 25 -78 10 -108
7 -154 -16z"/>
<path d="M25603 8683 l-33 -4 0 -295 c0 -287 0 -294 20 -294 19 0 20 7 20 99
l0 98 83 5 c59 3 94 10 118 24 109 62 106 291 -4 347 -39 20 -138 30 -204 20z
m189 -57 c51 -33 72 -137 45 -216 -7 -20 -27 -44 -47 -58 -29 -19 -45 -22
-105 -20 l-70 3 -3 149 c-2 113 1 152 10 158 21 14 141 3 170 -16z"/>
<path d="M26104 8681 c-96 -24 -136 -101 -142 -272 -5 -142 11 -211 64 -268
57 -64 164 -76 237 -27 68 46 104 165 94 310 -9 131 -40 201 -103 238 -36 21
-107 30 -150 19z m135 -58 c60 -44 89 -174 71 -317 -16 -129 -61 -181 -154
-180 -68 0 -101 22 -129 82 -19 41 -22 65 -22 177 0 119 2 134 25 180 31 62
75 88 139 82 24 -3 55 -13 70 -24z"/>
<path d="M26493 8683 l-33 -4 0 -295 c0 -287 0 -294 20 -294 19 0 20 7 20 109
l0 109 67 4 67 3 54 -112 c41 -86 58 -113 73 -113 10 0 19 5 19 10 0 6 -22 55
-50 110 -27 55 -50 103 -50 108 0 4 14 16 31 26 99 58 89 269 -15 320 -39 19
-139 29 -203 19z m166 -46 c47 -17 71 -53 77 -118 4 -44 1 -63 -18 -99 -27
-54 -71 -73 -158 -68 l-55 3 -3 139 c-2 105 1 141 10 148 19 12 108 9 147 -5z"/>
<path d="M10560 8385 c0 -288 0 -295 20 -295 20 0 20 7 20 295 0 288 0 295
-20 295 -20 0 -20 -7 -20 -295z"/>
<path d="M10730 8386 c0 -289 0 -296 20 -296 19 0 20 7 20 257 l0 257 152
-257 c128 -216 156 -257 175 -257 l23 0 0 295 c0 288 0 295 -20 295 -19 0 -20
-7 -21 -257 0 -167 -4 -253 -10 -243 -5 8 -73 123 -152 255 -110 186 -148 241
-165 243 l-22 3 0 -295z"/>
<path d="M11560 8660 c0 -18 7 -20 75 -20 l75 0 0 -275 0 -275 25 0 25 0 0
275 0 275 75 0 c68 0 75 2 75 20 0 19 -7 20 -175 20 -168 0 -175 -1 -175 -20z"/>
<path d="M11980 8385 c0 -288 0 -295 20 -295 20 0 20 7 20 295 0 288 0 295
-20 295 -20 0 -20 -7 -20 -295z"/>
<path d="M12100 8660 c0 -18 7 -20 75 -20 l75 0 0 -275 c0 -268 0 -275 20
-275 20 0 20 7 20 275 l0 275 75 0 c68 0 75 2 75 20 0 19 -7 20 -170 20 -163
0 -170 -1 -170 -20z"/>
<path d="M12512 8453 c3 -220 4 -230 28 -278 34 -67 74 -89 159 -89 170 1 201
68 201 432 l0 162 -24 0 -25 0 -3 -233 c-3 -202 -5 -236 -21 -260 -59 -90
-201 -86 -249 6 -20 39 -22 60 -26 265 -4 213 -5 222 -24 222 -19 0 -20 -7
-16 -227z"/>
<path d="M12960 8660 c0 -17 8 -19 78 -22 l77 -3 3 -272 c2 -265 3 -273 22
-273 19 0 20 7 20 275 l0 275 75 0 c68 0 75 2 75 20 0 19 -7 20 -175 20 -167
0 -175 -1 -175 -20z"/>
<path d="M14450 8385 l0 -296 152 3 c135 3 153 5 156 20 3 16 -10 18 -130 20
l-133 3 0 115 0 115 113 3 c104 2 112 4 112 22 0 19 -7 20 -115 20 l-116 0 3
113 3 112 128 3 c119 2 127 4 127 22 0 19 -7 20 -150 20 l-150 0 0 -295z"/>
<path d="M15076 8568 c-19 -62 -55 -183 -81 -268 -25 -85 -50 -168 -55 -183
-9 -26 -7 -28 13 -25 18 2 26 19 50 96 l28 92 108 0 108 0 29 -95 c24 -82 31
-95 50 -95 21 0 19 9 -47 228 -38 125 -79 257 -90 295 -19 63 -22 67 -49 67
-28 0 -30 -3 -64 -112z m113 -93 c23 -77 41 -143 41 -147 0 -5 -42 -8 -93 -8
l-94 0 46 155 c25 85 48 151 52 147 4 -4 25 -70 48 -147z"/>
<path d="M16300 8385 l0 -295 25 0 25 0 0 295 0 295 -25 0 -25 0 0 -295z"/>
<path d="M17206 8663 c-2 -10 -41 -138 -85 -285 -45 -146 -81 -271 -81 -277 0
-6 8 -11 18 -11 15 0 25 20 47 95 l28 95 108 0 108 0 29 -92 c24 -79 31 -93
51 -96 20 -3 22 -1 15 20 -4 13 -44 145 -89 293 l-82 270 -31 3 c-22 2 -32 -2
-36 -15z m94 -218 l37 -120 -90 -3 c-49 -1 -92 -1 -94 2 -5 4 74 281 86 301 3
5 10 -6 15 -25 5 -19 26 -89 46 -155z"/>
<path d="M17660 8385 l0 -295 150 0 c143 0 150 1 150 20 0 19 -7 20 -130 20
l-130 0 0 120 0 120 115 0 c108 0 115 1 115 20 0 19 -7 20 -115 20 l-115 0 0
115 0 115 125 0 c118 0 125 1 125 20 0 19 -7 20 -145 20 l-145 0 0 -295z"/>
<path d="M18510 8463 c0 -121 5 -235 11 -256 17 -61 61 -104 121 -117 102 -21
186 11 223 85 18 36 20 64 23 273 4 226 3 232 -16 232 -19 0 -20 -8 -24 -222
-4 -244 -11 -278 -66 -315 -37 -24 -129 -24 -166 0 -57 38 -66 79 -66 320 0
210 -1 217 -20 217 -19 0 -20 -7 -20 -217z"/>
<path d="M19515 8668 c-2 -7 -40 -134 -85 -283 -44 -148 -83 -276 -85 -283 -3
-9 2 -12 17 -10 19 2 27 18 51 96 l28 92 108 0 108 0 28 -95 c22 -75 32 -95
47 -95 10 0 18 5 18 11 0 9 -36 129 -166 562 -6 20 -62 24 -69 5z m85 -196
c23 -79 40 -146 37 -148 -2 -3 -45 -3 -94 -2 l-89 3 45 152 c25 84 48 149 52
145 3 -4 25 -71 49 -150z"/>
<path d="M20327 8673 c-3 -5 -42 -129 -86 -278 -45 -148 -84 -278 -87 -287 -4
-13 0 -18 15 -18 17 0 25 16 49 93 l29 92 111 3 c79 2 112 -1 112 -9 0 -6 12
-49 26 -95 21 -66 30 -84 45 -84 11 0 19 3 19 7 0 3 -39 136 -87 295 -86 286
-87 288 -114 288 -15 0 -30 -3 -32 -7z m79 -199 c24 -81 44 -149 44 -151 0 -1
-43 -3 -96 -3 -77 0 -95 3 -91 14 4 10 59 192 84 279 2 10 7 16 10 14 2 -3 24
-71 49 -153z"/>
<path d="M21642 8452 c3 -220 4 -230 28 -277 33 -63 80 -89 165 -89 87 0 133
25 165 89 24 48 25 58 28 278 l4 227 -26 0 -26 0 0 -222 c0 -203 -2 -225 -21
-264 -48 -100 -199 -96 -251 7 -16 29 -18 64 -18 257 l0 222 -26 0 -26 0 4
-228z"/>
<path d="M22150 8385 l0 -295 120 0 c113 0 120 1 120 20 0 19 -7 20 -100 20
l-100 0 0 275 c0 268 0 275 -20 275 -20 0 -20 -7 -20 -295z"/>
<path d="M22350 8660 c0 -18 7 -20 75 -20 l75 0 0 -275 c0 -268 0 -275 20
-275 20 0 20 7 20 275 l0 275 75 0 c68 0 75 2 75 20 0 19 -7 20 -170 20 -163
0 -170 -1 -170 -20z"/>
<path d="M22762 8448 c3 -227 4 -234 28 -277 35 -62 78 -85 160 -85 84 0 136
25 164 80 19 36 21 59 24 277 3 233 3 237 -17 237 -21 0 -21 -5 -21 -211 0
-233 -7 -276 -52 -314 -67 -57 -186 -35 -224 41 -16 34 -19 67 -22 262 -4 214
-5 222 -24 222 -19 0 -20 -6 -16 -232z"/>
<path d="M23807 8673 c-3 -5 -41 -129 -86 -278 -45 -148 -84 -278 -87 -288 -5
-15 -1 -18 16 -15 19 2 27 18 50 93 l27 90 112 3 c78 2 111 -1 111 -9 0 -6 12
-49 26 -95 21 -66 30 -84 45 -84 11 0 19 3 19 7 0 4 -39 136 -87 295 -86 286
-87 288 -114 288 -15 0 -30 -3 -32 -7z m78 -196 c25 -81 45 -149 45 -152 0 -3
-43 -5 -96 -5 -77 0 -95 3 -91 14 4 10 59 192 84 279 2 10 7 17 9 14 3 -2 25
-70 49 -150z"/>
<path d="M24250 8385 l0 -296 152 3 c135 3 153 5 156 20 3 16 -10 18 -130 20
l-133 3 0 115 0 115 113 3 c104 2 112 4 112 22 0 19 -7 20 -115 20 l-116 0 3
113 3 112 128 3 c119 2 127 4 127 22 0 19 -7 20 -150 20 l-150 0 0 -295z"/>
<path d="M24810 8385 l0 -295 150 0 c143 0 150 1 150 20 0 19 -7 20 -130 20
l-130 0 0 120 0 120 115 0 c108 0 115 1 115 20 0 19 -7 20 -115 20 l-115 0 0
115 0 115 125 0 c118 0 125 1 125 20 0 19 -7 20 -145 20 l-145 0 0 -295z"/>
<path d="M26820 8660 c0 -18 7 -20 75 -20 l75 0 0 -275 c0 -268 0 -275 20
-275 20 0 20 7 20 275 l0 275 75 0 c68 0 75 2 75 20 0 19 -7 20 -170 20 -163
0 -170 -1 -170 -20z"/>
<path d="M27240 8385 l0 -295 150 0 c143 0 150 1 150 20 0 19 -7 20 -130 20
l-130 0 0 120 0 120 110 0 c103 0 110 1 110 20 0 19 -7 20 -110 20 l-110 0 0
115 0 115 125 0 c118 0 125 1 125 20 0 19 -7 20 -145 20 l-145 0 0 -295z"/>
</g>
</svg>
